# xmcd CD database file
#
# Track frame offsets:
#	150
#	8536
#	24558
#	40423
#	65950
#	77461
#	91564
#	111678
#	126384
#	138916
#	149295
#	163443
#	175000
#	196197
#	208431
#	218249
#	232929
#	252186
#	266319
#	276119
#	291885
#
# Disc length: 4196 seconds
#
# Revision: 1
# Processed by: cddbd v1.5.2PL0 Copyright (c) Steve Scherf et al.
# Submitted via: Feurio! 1.67 - http://www.feurio.com
#
DISCID=38106215
DTITLE=Papa Legba's Blueslounge - Cigar Boogie
DYEAR=2001
DGENRE=Blues
TTITLE0=I Ain't Gonna Be Your Monkey Man
TTITLE1=Since My Baby Gone
TTITLE2=Hypin' Woman Blues
TTITLE3=Cigar Boogie
TTITLE4=Sweet Puppie Blues
TTITLE5=Some Of These Days
TTITLE6=PJ's Tune
TTITLE7=Alberta
TTITLE8=Fishing Blues
TTITLE9=Everybody's Truckin'
TTITLE10=Trouble In Mind
TTITLE11=Mystery Train
TTITLE12=Diddy Wah Diddy
TTITLE13=Going Up The Country
TTITLE14=Slow Down
TTITLE15=Tell That Woman
TTITLE16=Suns In The Courtyard Of My Heart
TTITLE17=Suzie Q
TTITLE18=Hot Sausage
TTITLE19=Pat Garrett And Billy The Kid
TTITLE20=Ain't Gwine To Whistle Dixie Any Mo'
EXTD=
EXTT0=
EXTT1=
EXTT2=
EXTT3=
EXTT4=
EXTT5=
EXTT6=
EXTT7=
EXTT8=
EXTT9=
EXTT10=
EXTT11=
EXTT12=
EXTT13=
EXTT14=
EXTT15=
EXTT16=
EXTT17=
EXTT18=
EXTT19=
EXTT20=
PLAYORDER=
